<?xml version="1.0" standalone="no"?><!DOCTYPE svg PUBLIC "-//W3C//DTD SVG 1.1//EN" "http://www.w3.org/Graphics/SVG/1.1/DTD/svg11.dtd"><svg t="1749295687710" class="icon" viewBox="0 0 1024 1024" version="1.1" xmlns="http://www.w3.org/2000/svg" p-id="3509" xmlns:xlink="http://www.w3.org/1999/xlink" width="200" height="200"><path d="M268.032 918.784h159.6416v-357.1712H268.032v357.1712z m671.0784-172.4416c-25.088-39.424-9.984-89.9584 33.6896-112.896l-46.9504-73.8304c-13.4144 7.168-28.9792 11.264-45.6704 11.264-50.176 0-90.8288-37.1712-90.8288-83.0464h-93.8496c0.1024 14.1312-3.7888 28.5184-12.1344 41.6256-25.088 39.424-80.7936 52.8384-124.4672 30.0032l-46.9504 73.8304c13.5168 6.9632 25.1904 17.2032 33.536 30.2592 25.0368 39.3728 10.0352 89.7536-33.4336 112.7936l46.9504 73.8304c13.3632-7.0656 28.8768-11.1104 45.4144-11.1104 50.0224 0 90.5728 36.9152 90.8288 82.5856h93.9008a76.1856 76.1856 0 0 1 12.0832-41.1648c25.0368-39.3728 80.5888-52.7872 124.2624-30.0544l46.9504-73.8304a87.6544 87.6544 0 0 1-33.3312-30.2592z m-196.7616 46.1824c-53.4016 0-96.7168-39.3216-96.7168-87.8592 0-48.4864 43.3152-87.808 96.7168-87.808s96.7168 39.3216 96.7168 87.808c0 48.5376-43.3152 87.8592-96.7168 87.8592zM51.2 918.784h159.6416v-255.1296H51.2v255.1296zM810.1376 255.488V102.4h-162.6624l54.2208 51.0464-216.7808 204.0832L376.4736 255.488 51.2 510.4128 102.4 563.2l274.0736-205.6704 108.4416 102.0416 271.0528-255.1296 54.1696 51.0464z" fill="#da4e33" p-id="3510"></path></svg>