<?xml version="1.0" standalone="no"?><!DOCTYPE svg PUBLIC "-//W3C//DTD SVG 1.1//EN" "http://www.w3.org/Graphics/SVG/1.1/DTD/svg11.dtd"><svg t="1749295663443" class="icon" viewBox="0 0 1024 1024" version="1.1" xmlns="http://www.w3.org/2000/svg" p-id="1603" xmlns:xlink="http://www.w3.org/1999/xlink" width="200" height="200"><path d="M802.3 649c-13.3 0-24 10.7-24 24v163.9c0 17.7-14.4 32.1-32.1 32.1H222.6c-17.7 0-32.1-14.4-32.1-32.1v-656c0-17.7 14.4-32.1 32.1-32.1h523.7c17.7 0 32 14.4 32 32V235c0 13.3 10.7 24 24 24s24-10.7 24-24v-54.2c0-44.1-35.9-80-80-80H222.6c-44.2 0-80.1 35.9-80.1 80.1v656c0 44.2 35.9 80.1 80.1 80.1h523.6c44.2 0 80.1-35.9 80.1-80.1V673c0-13.3-10.7-24-24-24z" fill="#da4e33" p-id="1604"></path><path d="M856.6 332.2L827 315.1c-15.2-9.3-31.5-11.1-47-5.2-12.7 4.8-24.3 14.8-33.8 29l-16.4 25.2c-0.8 0.8-1.5 1.7-2.1 2.6-0.7 1-1.2 2.1-1.7 3.2L563 620.5c-8.8 13.2-13.2 29.2-12.6 45.1l-2.2 90.4c-0.1 5.7 5.4 9.7 10.8 7.9l100.8-35.2c15.6-4.6 28.6-14.8 36.8-28.9L866 411.2l0.1-0.1c5.3-9.1 11.7-23.2 12.1-38 0.5-17.5-7.2-32-21.6-40.9z m-50.3 17.1l29.6 17.1c1.4 0.9 2.4 1.7 2.3 5.4-0.1 5-2.6 12-6.7 19.1l-8.5 14.5-50.6-33.3 7.3-11.2c13.1-19.8 22.6-14 26.6-11.6zM662.1 679.5l-0.1 0.1c-3 5.2-8 9-13.8 10.7l-0.5 0.1-51.7 18c-3.2 1.1-6.6-1.3-6.5-4.7l1-38.7v-0.8c-0.4-7.6 1.7-15.4 5.9-21.7l154.2-236.9 52.2 34.3-140.7 239.6zM702.6 256.9c-7.8-7.8-20.5-7.9-28.3-0.1L467.8 462.4l-93.9-98.6c-7-7.4-18.5-8.3-26.6-2.1l-113.1 86.6c-8.8 6.7-10.4 19.3-3.7 28 6.7 8.8 19.3 10.4 28 3.7l98.8-75.7 95.6 100.4c3.7 3.9 8.8 6.1 14.2 6.2h0.3c5.3 0 10.4-2.1 14.1-5.8l221.1-220c7.8-7.7 7.8-20.4 0-28.2zM266.3 647h186.2c11 0 20-9 20-20s-9-20-20-20H266.3c-11 0-20 9-20 20s9 20 20 20zM266.3 775h232.2c11 0 20-9 20-20s-9-20-20-20H266.3c-11 0-20 9-20 20s9 20 20 20z" fill="#da4e33" p-id="1605"></path></svg>